<svg width="70" height="71" viewBox="0 0 70 71" fill="none" xmlns="http://www.w3.org/2000/svg">
<g clip-path="url(#clip0)">
<path d="M9.75623 63.1167L4.13873 0.11377H65.8612L60.2379 63.1079L34.9621 70.1138L9.75623 63.1167Z" fill="#E44D26"/>
<path d="M35 64.7588L55.4225 59.0946L60.2292 5.26459H35V64.7588Z" fill="#F16529"/>
<path d="M35 28.633H24.7771L24.0683 20.72H35V12.9909H15.6246L15.8083 15.0646L17.7071 36.3563H35V28.633ZM35 48.6996L34.965 48.7084L26.3608 46.3838L25.8096 40.2209H18.0542L19.1362 52.3542L34.965 56.7496L35 56.738V48.6996Z" fill="#EBEBEB"/>
<path d="M34.9738 28.633V36.3592H44.4908L43.5925 46.3809L34.9738 48.7055V56.7438L50.8142 52.3542L50.9308 51.0475L52.7479 30.7067L52.9346 28.63H50.8521H34.9738V28.633ZM34.9738 12.9909V20.72H53.6375L53.7921 18.9817L54.145 15.0646L54.3288 12.9909H34.9738V12.9909Z" fill="white"/>
<path d="M35 70.1021L34.9621 70.1138H35V70.1021Z" fill="#DEDEDE"/>
<path d="M35 20.72H24.0683L24.7741 28.6329H34.9708H35V20.72ZM35 0.11377H4.13873L9.75623 63.1167L34.9621 70.1138L35 70.1021V56.7379L34.965 56.7496L19.1362 52.3542L18.0541 40.2209H25.8096L26.3608 46.3838L34.965 48.7084L34.9737 48.7054L35 48.6996V36.3592H17.7071L15.8083 15.0675L15.6246 12.9909H34.9737H35V0.11377Z" fill="#C64321"/>
<path d="M25.8096 40.2209H18.0542L19.1362 52.3542L34.965 56.7496L35 56.738L34.9737 56.7438V48.7055L34.965 48.7084L26.3608 46.3838L25.8096 40.2209ZM34.9737 12.9909H15.6246L15.8083 15.0646L17.7071 36.3563H35H34.9737V28.633H24.7771L24.0683 20.72H35H34.9737V12.9909Z" fill="#CDCDCD"/>
<path d="M35 48.6996L34.9738 48.7055V56.7438L35 56.738V48.6996ZM35 28.633H34.9738V36.3592H35V28.633ZM35 12.9909H34.9738V20.72H35V12.9909Z" fill="#DEDEDE"/>
</g>
<defs>
<clipPath id="clip0">
<rect width="70" height="70" fill="white" transform="translate(0 0.11377)"/>
</clipPath>
</defs>
</svg>
