<svg width="70" height="71" viewBox="0 0 70 71" fill="none" xmlns="http://www.w3.org/2000/svg">
<g clip-path="url(#clip0)">
<path d="M69.9795 0.489807H0.0205078C0.00918166 0.489807 0 0.498989 0 0.510315V70.4693C0 70.4806 0.00918166 70.4898 0.0205078 70.4898H69.9795C69.9908 70.4898 70 70.4806 70 70.4693V0.510315C70 0.498989 69.9908 0.489807 69.9795 0.489807Z" fill="#F7DF1E"/>
<path d="M44.2969 51.0757C45.6641 53.4 47.5781 55.0406 50.7227 55.0406C53.457 55.0406 55.2344 53.6734 55.2344 51.7593C55.2344 49.5718 53.457 48.7515 50.4492 47.3843L48.8086 46.7007C44.0234 44.65 40.8789 42.189 40.8789 36.857C40.8789 31.9351 44.5703 28.107 50.4492 28.107C54.6875 28.107 57.6953 29.6109 59.7461 33.439L54.6875 36.7203C53.5938 34.6695 52.3633 33.8492 50.4492 33.8492C48.5352 33.8492 47.3047 35.0797 47.3047 36.7203C47.3047 38.6343 48.5352 39.4547 51.4062 40.6851L53.0469 41.3687C58.6523 43.8297 61.7969 46.1539 61.7969 51.7593C61.7969 57.6382 57.1484 60.9195 50.8594 60.9195C44.707 60.9195 40.7422 58.0484 38.8281 54.2203L44.2969 51.0757ZM21.0547 51.6226C22.1484 53.4 22.9688 55.0406 25.293 55.0406C27.4805 55.0406 28.8477 54.2203 28.8477 50.939V28.2437H35.4102V50.6656C35.4102 57.5015 31.4453 60.5093 25.5664 60.5093C20.2344 60.5093 17.2266 57.775 15.7227 54.4937L21.0547 51.6226Z" fill="black"/>
</g>
<defs>
<clipPath id="clip0">
<rect width="70" height="70" fill="white" transform="translate(0 0.489807)"/>
</clipPath>
</defs>
</svg>
