<svg width="70" height="71" viewBox="0 0 70 71" fill="none" xmlns="http://www.w3.org/2000/svg">
<g clip-path="url(#clip0)">
<path d="M34.7003 0.381516C16.9745 0.381516 18.0812 8.09935 18.0812 8.09935L18.1009 16.0953H35.0164V18.4958H11.3824C11.3824 18.4958 0.0396118 17.2043 0.0396118 35.1613C0.0396118 53.1189 9.93985 52.482 9.93985 52.482H15.8483V44.149C15.8483 44.149 15.5298 34.209 25.5905 34.209H42.3676C42.3676 34.209 51.7934 34.3619 51.7934 25.0627V9.68684C51.7934 9.68684 53.225 0.381516 34.7003 0.381516ZM25.3731 5.75861C25.7728 5.75825 26.1687 5.83703 26.5381 5.99044C26.9074 6.14386 27.2431 6.36889 27.5257 6.65268C27.8083 6.93646 28.0325 7.27341 28.1853 7.64426C28.3381 8.01511 28.4166 8.41257 28.4162 8.8139C28.4166 9.21523 28.3381 9.61269 28.1853 9.98353C28.0325 10.3544 27.8083 10.6913 27.5257 10.9751C27.2431 11.2589 26.9074 11.4839 26.5381 11.6374C26.1687 11.7908 25.7728 11.8695 25.3731 11.8692C24.9734 11.8695 24.5775 11.7908 24.2082 11.6374C23.8388 11.4839 23.5032 11.2589 23.2205 10.9751C22.9379 10.6913 22.7138 10.3544 22.561 9.98353C22.4082 9.61269 22.3297 9.21523 22.33 8.8139C22.3297 8.41257 22.4082 8.01511 22.561 7.64426C22.7138 7.27341 22.9379 6.93646 23.2205 6.65268C23.5032 6.36889 23.8388 6.14386 24.2082 5.99044C24.5775 5.83703 24.9734 5.75825 25.3731 5.75861V5.75861Z" fill="url(#paint0_linear)"/>
<path d="M35.2037 70.1218C52.9296 70.1218 51.8228 62.4039 51.8228 62.4039L51.8031 54.4083H34.8874V52.0077H58.5214C58.5214 52.0077 69.8641 53.2993 69.8641 35.3417C69.8641 17.3844 59.9639 18.0212 59.9639 18.0212H54.0555V26.354C54.0555 26.354 54.374 36.294 44.3133 36.294H27.5362C27.5362 36.294 18.1103 36.1411 18.1103 45.4406V60.8167C18.1103 60.8167 16.679 70.1218 35.2035 70.1218H35.2037ZM44.5309 64.7452C44.1312 64.7456 43.7353 64.6668 43.3659 64.5134C42.9966 64.36 42.661 64.1349 42.3783 63.8512C42.0957 63.5674 41.8715 63.2304 41.7187 62.8596C41.5659 62.4887 41.4875 62.0913 41.4878 61.6899C41.4874 61.2886 41.5659 60.8911 41.7187 60.5202C41.8714 60.1493 42.0956 59.8123 42.3782 59.5285C42.6609 59.2447 42.9965 59.0197 43.3659 58.8662C43.7353 58.7128 44.1312 58.634 44.5309 58.6344C44.9306 58.634 45.3265 58.7128 45.6959 58.8662C46.0652 59.0196 46.4008 59.2447 46.6835 59.5284C46.9661 59.8122 47.1903 60.1492 47.3431 60.52C47.4959 60.8909 47.5743 61.2883 47.574 61.6897C47.5743 62.091 47.4959 62.4884 47.3431 62.8593C47.1903 63.2301 46.9661 63.5671 46.6835 63.8509C46.4008 64.1347 46.0652 64.3597 45.6959 64.5131C45.3265 64.6665 44.9306 64.7453 44.5309 64.7449V64.7452Z" fill="url(#paint1_linear)"/>
</g>
<defs>
<linearGradient id="paint0_linear" x1="6.74972" y1="6.65423" x2="41.4898" y2="40.9102" gradientUnits="userSpaceOnUse">
<stop stop-color="#387EB8"/>
<stop offset="1" stop-color="#366994"/>
</linearGradient>
<linearGradient id="paint1_linear" x1="27.989" y1="28.7408" x2="65.289" y2="63.8607" gradientUnits="userSpaceOnUse">
<stop stop-color="#FFE052"/>
<stop offset="1" stop-color="#FFC331"/>
</linearGradient>
<clipPath id="clip0">
<rect width="70" height="70" fill="white" transform="translate(0 0.361755)"/>
</clipPath>
</defs>
</svg>
